<svg width="1080" height="1080" viewBox="0 0 1080 1080" fill="none" xmlns="http://www.w3.org/2000/svg">
<path id="icon" fill-rule="evenodd" clip-rule="evenodd" d="M135 0C60.4416 0 0 60.4416 0 135V945C0 1019.56 60.4416 1080 135 1080H945C1019.56 1080 1080 1019.56 1080 945V135C1080 60.4416 1019.56 0 945 0H135ZM675.148 447.813C675.148 511.737 755.517 539.809 795.364 490.091C804.482 478.929 820.353 477.238 831.496 485.694C912.879 544.206 960.83 649.055 940.231 759.654C926.048 835.416 878.772 900.016 814.95 938.912C838.588 904.413 849.394 861.121 840.952 815.122C834.873 780.286 815.963 749.169 790.974 724.479L698.786 633.497C685.616 620.645 664.68 620.645 651.51 633.497L559.997 723.802C534.333 748.831 515.423 780.624 509.007 815.799C505.064 837.325 505.453 859.422 510.15 880.795C514.847 902.168 523.757 922.387 536.36 940.265C457.679 893.252 405 807.005 405 708.244C405 538.118 544.126 420.417 622.807 367.654C645.094 352.772 675.148 369.007 675.148 396.065V447.813ZM606.598 772.506L675.148 704.862L743.698 772.845C759.569 788.065 771.388 807.682 775.103 829.328C785.234 891.223 736.607 945 675.148 945C613.689 945 565.063 891.223 575.193 828.99C578.908 807.343 591.065 788.065 606.598 772.506Z" fill="#1E90FF"/>
</svg>
